%TF.GenerationSoftware,KiCad,Pcbnew,7.0.9*%
%TF.CreationDate,2024-12-03T14:46:30-06:00*%
%TF.ProjectId,GVH_TouchPad,4756485f-546f-4756-9368-5061642e6b69,v0.1*%
%TF.SameCoordinates,Original*%
%TF.FileFunction,Copper,L1,Top*%
%TF.FilePolarity,Positive*%
%FSLAX46Y46*%
G04 Gerber Fmt 4.6, Leading zero omitted, Abs format (unit mm)*
G04 Created by KiCad (PCBNEW 7.0.9) date 2024-12-03 14:46:30*
%MOMM*%
%LPD*%
G01*
G04 APERTURE LIST*
%TA.AperFunction,ViaPad*%
%ADD10C,0.800000*%
%TD*%
%TA.AperFunction,Conductor*%
%ADD11C,0.254000*%
%TD*%
G04 APERTURE END LIST*
D10*
%TO.N,TOUCH*%
X106362500Y-115125500D03*
X106299000Y-55499000D03*
%TD*%
D11*
%TO.N,TOUCH*%
X106362500Y-115125500D02*
X107759500Y-113728500D01*
X106299000Y-55499000D02*
X107569000Y-56769000D01*
%TD*%
%TA.AperFunction,Conductor*%
%TO.N,TOUCH*%
G36*
X154276269Y-50875658D02*
G01*
X154280755Y-50875978D01*
X154342646Y-50880405D01*
X154345554Y-50880683D01*
X155182921Y-50980803D01*
X155185779Y-50981214D01*
X156017453Y-51121066D01*
X156020286Y-51121612D01*
X156844367Y-51300879D01*
X156847208Y-51301569D01*
X157661800Y-51519838D01*
X157664607Y-51520663D01*
X158467889Y-51777444D01*
X158470640Y-51778397D01*
X159260784Y-52073106D01*
X159263524Y-52074203D01*
X160038713Y-52406158D01*
X160041398Y-52407384D01*
X160799948Y-52775865D01*
X160802570Y-52777217D01*
X161542719Y-53181368D01*
X161545262Y-53182837D01*
X162265336Y-53621745D01*
X162267786Y-53623319D01*
X162966189Y-54096012D01*
X162968590Y-54097722D01*
X163643704Y-54603105D01*
X163645993Y-54604906D01*
X164296290Y-55141837D01*
X164298520Y-55143769D01*
X164922519Y-55711022D01*
X164924633Y-55713037D01*
X165520961Y-56309365D01*
X165522977Y-56311480D01*
X166090230Y-56935479D01*
X166092162Y-56937709D01*
X166629093Y-57588006D01*
X166630898Y-57590301D01*
X167059618Y-58163004D01*
X167136275Y-58265406D01*
X167137987Y-58267810D01*
X167610673Y-58966202D01*
X167612254Y-58968663D01*
X168051162Y-59688737D01*
X168052638Y-59691293D01*
X168456781Y-60431427D01*
X168458134Y-60434051D01*
X168826615Y-61192601D01*
X168827841Y-61195286D01*
X169159796Y-61970475D01*
X169160893Y-61973215D01*
X169455602Y-62763359D01*
X169456568Y-62766148D01*
X169713332Y-63569379D01*
X169714164Y-63572211D01*
X169932430Y-64386791D01*
X169933126Y-64389659D01*
X170112378Y-65213668D01*
X170112936Y-65216566D01*
X170252780Y-66048185D01*
X170253200Y-66051107D01*
X170353315Y-66888438D01*
X170353596Y-66891375D01*
X170358342Y-66957727D01*
X170358500Y-66962152D01*
X170358500Y-103471846D01*
X170358342Y-103476271D01*
X170353596Y-103542624D01*
X170353315Y-103545561D01*
X170253200Y-104382892D01*
X170252780Y-104385814D01*
X170112936Y-105217433D01*
X170112378Y-105220331D01*
X169933126Y-106044340D01*
X169932430Y-106047208D01*
X169714164Y-106861788D01*
X169713332Y-106864620D01*
X169456568Y-107667851D01*
X169455602Y-107670640D01*
X169160893Y-108460784D01*
X169159796Y-108463524D01*
X168827841Y-109238713D01*
X168826615Y-109241398D01*
X168458134Y-109999948D01*
X168456781Y-110002572D01*
X168052638Y-110742706D01*
X168051162Y-110745262D01*
X167612254Y-111465336D01*
X167610659Y-111467819D01*
X167137987Y-112166189D01*
X167136275Y-112168593D01*
X166630918Y-112843673D01*
X166629093Y-112845993D01*
X166092162Y-113496290D01*
X166090230Y-113498520D01*
X165522977Y-114122519D01*
X165520941Y-114124655D01*
X164924655Y-114720941D01*
X164922519Y-114722977D01*
X164298520Y-115290230D01*
X164296290Y-115292162D01*
X163645993Y-115829093D01*
X163643673Y-115830918D01*
X162968593Y-116336275D01*
X162966189Y-116337987D01*
X162267819Y-116810659D01*
X162265336Y-116812254D01*
X161545262Y-117251162D01*
X161542706Y-117252638D01*
X160802572Y-117656781D01*
X160799948Y-117658134D01*
X160041398Y-118026615D01*
X160038713Y-118027841D01*
X159263524Y-118359796D01*
X159260784Y-118360893D01*
X158470640Y-118655602D01*
X158467851Y-118656568D01*
X157664620Y-118913332D01*
X157661788Y-118914164D01*
X156847208Y-119132430D01*
X156844340Y-119133126D01*
X156259979Y-119260245D01*
X156020326Y-119312378D01*
X156017433Y-119312936D01*
X155185814Y-119452780D01*
X155182892Y-119453200D01*
X154345561Y-119553315D01*
X154342624Y-119553596D01*
X154293937Y-119557078D01*
X154276268Y-119558342D01*
X154271846Y-119558500D01*
X117762154Y-119558500D01*
X117757731Y-119558342D01*
X117735962Y-119556785D01*
X117691375Y-119553596D01*
X117688438Y-119553315D01*
X116851107Y-119453200D01*
X116848185Y-119452780D01*
X116016566Y-119312936D01*
X116013681Y-119312380D01*
X115189659Y-119133126D01*
X115186791Y-119132430D01*
X114372211Y-118914164D01*
X114369379Y-118913332D01*
X113967763Y-118784950D01*
X113566134Y-118656563D01*
X113563359Y-118655602D01*
X112773215Y-118360893D01*
X112770475Y-118359796D01*
X111995286Y-118027841D01*
X111992601Y-118026615D01*
X111234051Y-117658134D01*
X111231427Y-117656781D01*
X110491293Y-117252638D01*
X110488737Y-117251162D01*
X109768663Y-116812254D01*
X109766202Y-116810673D01*
X109067810Y-116337987D01*
X109065406Y-116336275D01*
X108963004Y-116259618D01*
X108390301Y-115830898D01*
X108388006Y-115829093D01*
X107737709Y-115292162D01*
X107735479Y-115290230D01*
X107111480Y-114722977D01*
X107109365Y-114720961D01*
X106513037Y-114124633D01*
X106511022Y-114122519D01*
X105943769Y-113498520D01*
X105941837Y-113496290D01*
X105404906Y-112845993D01*
X105403105Y-112843704D01*
X104897722Y-112168590D01*
X104896012Y-112166189D01*
X104423319Y-111467786D01*
X104421745Y-111465336D01*
X103982837Y-110745262D01*
X103981361Y-110742706D01*
X103577218Y-110002572D01*
X103575865Y-109999948D01*
X103207384Y-109241398D01*
X103206158Y-109238713D01*
X102874203Y-108463524D01*
X102873106Y-108460784D01*
X102578397Y-107670640D01*
X102577444Y-107667889D01*
X102320663Y-106864607D01*
X102319835Y-106861788D01*
X102101569Y-106047208D01*
X102100879Y-106044367D01*
X101921612Y-105220286D01*
X101921063Y-105217433D01*
X101781214Y-104385779D01*
X101780803Y-104382921D01*
X101680683Y-103545554D01*
X101680405Y-103542646D01*
X101675658Y-103476269D01*
X101675500Y-103471845D01*
X101675500Y-66962153D01*
X101675658Y-66957729D01*
X101675658Y-66957727D01*
X101680405Y-66891350D01*
X101680684Y-66888438D01*
X101780803Y-66051072D01*
X101781213Y-66048226D01*
X101921068Y-65216538D01*
X101921610Y-65213721D01*
X102100881Y-64389622D01*
X102101569Y-64386791D01*
X102319841Y-63572188D01*
X102320659Y-63569403D01*
X102577448Y-62766097D01*
X102578397Y-62763359D01*
X102873106Y-61973215D01*
X102874203Y-61970475D01*
X103206158Y-61195286D01*
X103207384Y-61192601D01*
X103575865Y-60434051D01*
X103577208Y-60431446D01*
X103981378Y-59691262D01*
X103982821Y-59688763D01*
X104421761Y-58968638D01*
X104423306Y-58966231D01*
X104896030Y-58267783D01*
X104897707Y-58265428D01*
X105403120Y-57590275D01*
X105404895Y-57588019D01*
X105941847Y-56937696D01*
X105943743Y-56935508D01*
X106511036Y-56311464D01*
X106513017Y-56309386D01*
X107109386Y-55713017D01*
X107111464Y-55711036D01*
X107735508Y-55143743D01*
X107737696Y-55141847D01*
X108388019Y-54604895D01*
X108390275Y-54603120D01*
X109065428Y-54097707D01*
X109067783Y-54096030D01*
X109766231Y-53623306D01*
X109768638Y-53621761D01*
X110488763Y-53182821D01*
X110491262Y-53181378D01*
X111231446Y-52777208D01*
X111234041Y-52775869D01*
X111992608Y-52407380D01*
X111995269Y-52406165D01*
X112770488Y-52074197D01*
X112773215Y-52073106D01*
X113563359Y-51778397D01*
X113566097Y-51777448D01*
X114369403Y-51520659D01*
X114372188Y-51519841D01*
X115186796Y-51301567D01*
X115189622Y-51300881D01*
X116013721Y-51121610D01*
X116016538Y-51121068D01*
X116848226Y-50981213D01*
X116851072Y-50980803D01*
X117688449Y-50880682D01*
X117691350Y-50880405D01*
X117753708Y-50875945D01*
X117757731Y-50875658D01*
X117762155Y-50875500D01*
X154271845Y-50875500D01*
X154276269Y-50875658D01*
G37*
%TD.AperFunction*%
%TD*%
M02*
