0
SECTION
2
HEADER
9
$INSUNITS
70
1
9
$ACADVER
1
AC1014
9
$HANDSEED
5
FFFF
0
ENDSEC
0
SECTION
2
TABLES
0
TABLE
2
VPORT
5
8
100
AcDbSymbolTable
0
ENDTAB
0
TABLE
2
LTYPE
5
5
100
AcDbSymbolTable
0
LTYPE
5
14
100
AcDbSymbolTableRecord
100
AcDbLinetypeTableRecord
2
BYBLOCK
70
0
0
LTYPE
5
15
100
AcDbSymbolTableRecord
100
AcDbLinetypeTableRecord
2
BYLAYER
70
0
0
LTYPE
5
16
100
AcDbSymbolTableRecord
100
AcDbLinetypeTableRecord
2
DASHED
70
0
3
Dashed __ __ __ __ __ __ __ __ __ __ __ __ __ _
72
65
73
2
40
0.75
49
0.5
74
0
49
-0.25
74
0
0
ENDTAB
0
TABLE
2
LAYER
5
2
100
AcDbSymbolTable
70
3
0
LAYER
5
50
100
AcDbSymbolTableRecord
100
AcDbLayerTableRecord
2
1
70
0
62
7
6
DASHED
0
LAYER
5
51
100
AcDbSymbolTableRecord
100
AcDbLayerTableRecord
2
0
70
0
62
7
6
CONTINUOUS
0
ENDTAB
0
TABLE
2
STYLE
5
3
100
AcDbSymbolTable
70
1
0
STYLE
5
11
100
AcDbSymbolTableRecord
100
AcDbTextStyleTableRecord
2
STANDARD
70
0
0
ENDTAB
0
TABLE
2
VIEW
5
6
100
AcDbSymbolTable
70
0
0
ENDTAB
0
TABLE
2
UCS
5
7
100
AcDbSymbolTable
70
0
0
ENDTAB
0
TABLE
2
APPID
5
9
100
AcDbSymbolTable
70
2
0
APPID
5
12
100
AcDbSymbolTableRecord
100
AcDbRegAppTableRecord
2
ACAD
70
0
0
ENDTAB
0
TABLE
2
DIMSTYLE
5
A
100
AcDbSymbolTable
70
1
0
ENDTAB
0
TABLE
2
BLOCK_RECORD
5
1
100
AcDbSymbolTable
70
1
0
BLOCK_RECORD
5
1F
100
AcDbSymbolTableRecord
100
AcDbBlockTableRecord
2
*MODEL_SPACE
0
BLOCK_RECORD
5
1B
100
AcDbSymbolTableRecord
100
AcDbBlockTableRecord
2
*PAPER_SPACE
0
ENDTAB
0
ENDSEC
0
SECTION
2
BLOCKS
0
BLOCK
5
20
100
AcDbEntity
100
AcDbBlockBegin
2
*MODEL_SPACE
0
ENDBLK
5
21
100
AcDbEntity
100
AcDbBlockEnd
0
BLOCK
5
1C
100
AcDbEntity
100
AcDbBlockBegin
2
*PAPER_SPACE
0
ENDBLK
5
1D
100
AcDbEntity
100
AcDbBlockEnd
0
ENDSEC
0
SECTION
2
ENTITIES
0
LWPOLYLINE
5
100
100
AcDbEntity
8
0
100
AcDbPolyline
90
8
70
1
43
0.0
10
6.2499999999999982
20
0.875
42
0.41421356237308893
10
6.1249999999999982
20
0.99999999999999978
10
-6.1250000000000009
20
0.99999999999999989
42
0.41421356237309304
10
-6.2500000000000027
20
0.875
10
-6.2500000000000027
20
0.12499999999999994
42
0.41421356237309115
10
-6.1250000000000018
20
-6.556435184794231e-17
10
6.1249999999999973
20
0
42
0.41421356237309087
10
6.2499999999999982
20
0.12500000000000006
0
CIRCLE
5
101
100
AcDbEntity
8
0
100
AcDbCircle
10
-6.0625000000000009
20
0.8125
30
0
40
0.067000000000000087
210
0
220
-0
230
1
0
CIRCLE
5
102
100
AcDbEntity
8
0
100
AcDbCircle
10
6.0625000000000009
20
0.1875
30
0
40
0.067000000000000087
210
0
220
-0
230
1
0
CIRCLE
5
103
100
AcDbEntity
8
0
100
AcDbCircle
10
-6.0625000000000009
20
0.1875
30
0
40
0.067000000000000087
210
0
220
-0
230
1
0
CIRCLE
5
104
100
AcDbEntity
8
0
100
AcDbCircle
10
6.0625000000000009
20
0.8125
30
0
40
0.067000000000000087
210
0
220
-0
230
1
0
CIRCLE
5
105
100
AcDbEntity
8
0
100
AcDbCircle
10
-6.0625000000000009
20
0.1875
30
0
40
0.067000000000000004
210
0
220
-0
230
1
0
CIRCLE
5
106
100
AcDbEntity
8
0
100
AcDbCircle
10
-6.0625000000000009
20
0.8125
30
0
40
0.067000000000000004
210
0
220
-0
230
1
0
LWPOLYLINE
5
107
100
AcDbEntity
8
0
100
AcDbPolyline
90
6
70
1
43
0.0
10
-6.25
20
0.99999999999999989
10
-6.5
20
0.99999999999999989
10
-6.5
20
0
10
-6.25
20
0
10
-5.8749999999999982
20
0
10
-5.8749999999999982
20
0.99999999999999989
0
LWPOLYLINE
5
108
100
AcDbEntity
8
0
100
AcDbPolyline
90
8
70
1
43
0.0
10
-5.8399999999999999
20
1.1674999999999995
10
-6.0900000000000007
20
1.1674999999999995
10
-6.0900000000000007
20
1.2299999999999998
10
-5.8399999999999999
20
1.2299999999999998
10
-3.6100000000000017
20
1.2299999999999998
10
-3.3600000000000003
20
1.2299999999999998
10
-3.3600000000000003
20
1.1674999999999995
10
-3.6100000000000008
20
1.1674999999999995
0
LWPOLYLINE
5
109
100
AcDbEntity
8
0
100
AcDbPolyline
90
8
70
1
43
0.0
10
-4.0700000000000003
20
1.2499999999999996
10
-3.370000000000001
20
1.2499999999999996
10
-3.370000000000001
20
1.2299999999999998
10
-4.0700000000000003
20
1.2299999999999998
10
-5.3800000000000008
20
1.2299999999999998
10
-6.0800000000000001
20
1.2299999999999998
10
-6.0800000000000001
20
1.2499999999999996
10
-5.3800000000000008
20
1.2499999999999996
0
LWPOLYLINE
5
110
100
AcDbEntity
8
0
100
AcDbPolyline
90
8
70
1
43
0.0
10
-4.0700000000000003
20
1.1474999999999997
10
-3.370000000000001
20
1.1474999999999997
10
-3.370000000000001
20
1.1674999999999995
10
-4.0700000000000003
20
1.1674999999999995
10
-5.3800000000000008
20
1.1674999999999995
10
-6.0800000000000001
20
1.1674999999999995
10
-6.0800000000000001
20
1.1474999999999997
10
-5.3800000000000008
20
1.1474999999999997
0
LWPOLYLINE
5
111
100
AcDbEntity
8
0
100
AcDbPolyline
90
8
70
1
43
0.0
10
-2.6899999999999999
20
1.1674999999999995
10
-2.9399999999999999
20
1.1674999999999995
10
-2.9399999999999999
20
1.2299999999999998
10
-2.6900000000000004
20
1.2299999999999998
10
-0.46000000000000052
20
1.2299999999999998
10
-0.21000000000000027
20
1.2299999999999998
10
-0.21000000000000027
20
1.1674999999999995
10
-0.46000000000000069
20
1.1674999999999995
0
LWPOLYLINE
5
112
100
AcDbEntity
8
0
100
AcDbPolyline
90
8
70
1
43
0.0
10
-0.92000000000000015
20
1.1474999999999997
10
-0.22000000000000006
20
1.1474999999999997
10
-0.22000000000000006
20
1.1674999999999995
10
-0.92000000000000015
20
1.1674999999999995
10
-2.23
20
1.1674999999999995
10
-2.9300000000000002
20
1.1674999999999995
10
-2.9300000000000002
20
1.1474999999999997
10
-2.23
20
1.1474999999999997
0
LWPOLYLINE
5
113
100
AcDbEntity
8
0
100
AcDbPolyline
90
8
70
1
43
0.0
10
-0.92000000000000015
20
1.2499999999999996
10
-0.22000000000000006
20
1.2499999999999996
10
-0.22000000000000022
20
1.2299999999999998
10
-0.92000000000000015
20
1.2299999999999998
10
-2.23
20
1.2299999999999998
10
-2.9300000000000002
20
1.2299999999999998
10
-2.9300000000000002
20
1.2499999999999996
10
-2.23
20
1.2499999999999996
0
LWPOLYLINE
5
114
100
AcDbEntity
8
0
100
AcDbPolyline
90
8
70
1
43
0.0
10
0.46000000000000035
20
1.1674999999999995
10
0.21000000000000027
20
1.1674999999999995
10
0.21000000000000027
20
1.2299999999999998
10
0.46000000000000035
20
1.2299999999999998
10
2.6899999999999999
20
1.2299999999999998
10
2.9399999999999999
20
1.2299999999999998
10
2.9399999999999999
20
1.1674999999999995
10
2.6899999999999995
20
1.1674999999999995
0
LWPOLYLINE
5
115
100
AcDbEntity
8
0
100
AcDbPolyline
90
8
70
1
43
0.0
10
2.2300000000000004
20
1.1474999999999997
10
2.9300000000000002
20
1.1474999999999997
10
2.9300000000000002
20
1.1674999999999995
10
2.2300000000000004
20
1.1674999999999995
10
0.92000000000000015
20
1.1674999999999995
10
0.22000000000000006
20
1.1674999999999995
10
0.22000000000000006
20
1.1474999999999997
10
0.92000000000000015
20
1.1474999999999997
0
LWPOLYLINE
5
116
100
AcDbEntity
8
0
100
AcDbPolyline
90
8
70
1
43
0.0
10
2.2300000000000004
20
1.2499999999999996
10
2.9300000000000002
20
1.2499999999999996
10
2.9300000000000002
20
1.2299999999999998
10
2.2300000000000004
20
1.2299999999999998
10
0.92000000000000015
20
1.2299999999999998
10
0.22000000000000006
20
1.2299999999999998
10
0.22000000000000006
20
1.2499999999999996
10
0.92000000000000015
20
1.2499999999999996
0
LWPOLYLINE
5
117
100
AcDbEntity
8
0
100
AcDbPolyline
90
8
70
1
43
0.0
10
3.6100000000000008
20
1.1674999999999995
10
3.3600000000000003
20
1.1674999999999995
10
3.3600000000000003
20
1.2299999999999998
10
3.6100000000000008
20
1.2299999999999998
10
5.839999999999999
20
1.2299999999999998
10
6.0900000000000007
20
1.2299999999999998
10
6.0900000000000007
20
1.1674999999999995
10
5.8399999999999999
20
1.1674999999999995
0
LWPOLYLINE
5
118
100
AcDbEntity
8
0
100
AcDbPolyline
90
8
70
1
43
0.0
10
5.3800000000000008
20
1.1474999999999997
10
6.0800000000000001
20
1.1474999999999997
10
6.0800000000000001
20
1.1674999999999995
10
5.3800000000000008
20
1.1674999999999995
10
4.0700000000000003
20
1.1674999999999995
10
3.370000000000001
20
1.1674999999999995
10
3.370000000000001
20
1.1474999999999997
10
4.0700000000000003
20
1.1474999999999997
0
LWPOLYLINE
5
119
100
AcDbEntity
8
0
100
AcDbPolyline
90
8
70
1
43
0.0
10
5.3800000000000008
20
1.2499999999999996
10
6.0800000000000001
20
1.2499999999999996
10
6.0800000000000001
20
1.2299999999999998
10
5.3800000000000008
20
1.2299999999999998
10
4.0700000000000003
20
1.2299999999999998
10
3.370000000000001
20
1.2299999999999998
10
3.370000000000001
20
1.2499999999999996
10
4.0700000000000003
20
1.2499999999999996
0
LINE
5
120
100
AcDbEntity
8
0
100
AcDbLine
10
-3.3600000000000003
20
1.1674999999999995
30
0
11
-3.3600000000000003
21
0.99999999999999989
31
0
0
LINE
5
121
100
AcDbEntity
8
0
100
AcDbLine
10
-6.0900000000000007
20
1.1674999999999995
30
0
11
-6.0900000000000007
21
0.99999999999999989
31
0
0
CIRCLE
5
122
100
AcDbEntity
8
0
100
AcDbCircle
10
6.0625000000000009
20
0.1875
30
0
40
0.067000000000000004
210
0
220
0
230
1
0
CIRCLE
5
123
100
AcDbEntity
8
0
100
AcDbCircle
10
6.0625000000000009
20
0.8125
30
0
40
0.067000000000000004
210
0
220
0
230
1
0
LWPOLYLINE
5
124
100
AcDbEntity
8
0
100
AcDbPolyline
90
6
70
1
43
0.0
10
6.25
20
0.99999999999999989
10
6.5
20
0.99999999999999989
10
6.5
20
0
10
6.25
20
0
10
5.8749999999999982
20
0
10
5.8749999999999982
20
0.99999999999999989
0
LINE
5
125
100
AcDbEntity
8
0
100
AcDbLine
10
-2.9399999999999999
20
1.1674999999999995
30
0
11
-2.9399999999999999
21
0.99999999999999989
31
0
0
LINE
5
126
100
AcDbEntity
8
0
100
AcDbLine
10
-0.21000000000000027
20
1.1674999999999995
30
0
11
-0.21000000000000027
21
0.99999999999999989
31
0
0
LINE
5
127
100
AcDbEntity
8
0
100
AcDbLine
10
6.0900000000000007
20
1.1674999999999995
30
0
11
6.0900000000000007
21
0.99999999999999989
31
0
0
LINE
5
128
100
AcDbEntity
8
0
100
AcDbLine
10
3.3600000000000003
20
1.1674999999999995
30
0
11
3.3600000000000003
21
0.99999999999999978
31
0
0
LINE
5
129
100
AcDbEntity
8
0
100
AcDbLine
10
2.9399999999999999
20
1.1674999999999995
30
0
11
2.9399999999999999
21
0.99999999999999978
31
0
0
LINE
5
130
100
AcDbEntity
8
0
100
AcDbLine
10
0.21000000000000027
20
1.1674999999999995
30
0
11
0.21000000000000027
21
0.99999999999999978
31
0
0
ENDSEC
0
SECTION
2
OBJECTS
0
DICTIONARY
5
C
100
AcDbDictionary
3
ACAD_GROUP
350
D
3
ACAD_MLINESTYLE
350
17
0
DICTIONARY
5
D
100
AcDbDictionary
0
DICTIONARY
5
1A
330
C
100
AcDbDictionary
0
DICTIONARY
5
17
100
AcDbDictionary
0
ENDSEC
0
EOF
